<mxfile host="Electron" modified="2023-09-09T20:39:07.345Z" agent="Mozilla/5.0 (X11; Linux x86_64) AppleWebKit/537.36 (KHTML, like Gecko) draw.io/21.1.2 Chrome/106.0.5249.199 Electron/21.4.3 Safari/537.36" etag="DRU6yLsjxip1cBozlVpU" version="21.1.2" type="device">
  <diagram name="Page-1" id="2pZC6sgV1t8SkAYdDknP">
    <mxGraphModel dx="1650" dy="848" grid="1" gridSize="10" guides="1" tooltips="1" connect="1" arrows="1" fold="1" page="1" pageScale="1" pageWidth="850" pageHeight="1100" math="0" shadow="0">
      <root>
        <mxCell id="0" />
        <mxCell id="1" parent="0" />
        <mxCell id="r6suHxJca4oAZhqO0_mq-35" style="edgeStyle=orthogonalEdgeStyle;rounded=0;orthogonalLoop=1;jettySize=auto;html=1;" edge="1" parent="1" source="r6suHxJca4oAZhqO0_mq-1" target="r6suHxJca4oAZhqO0_mq-2">
          <mxGeometry relative="1" as="geometry" />
        </mxCell>
        <mxCell id="r6suHxJca4oAZhqO0_mq-1" value="py.exe" style="strokeWidth=2;html=1;shape=mxgraph.flowchart.start_2;whiteSpace=wrap;" vertex="1" parent="1">
          <mxGeometry x="145" y="180" width="60" height="60" as="geometry" />
        </mxCell>
        <mxCell id="r6suHxJca4oAZhqO0_mq-34" style="edgeStyle=orthogonalEdgeStyle;rounded=0;orthogonalLoop=1;jettySize=auto;html=1;" edge="1" parent="1" source="r6suHxJca4oAZhqO0_mq-2" target="r6suHxJca4oAZhqO0_mq-4">
          <mxGeometry relative="1" as="geometry" />
        </mxCell>
        <mxCell id="r6suHxJca4oAZhqO0_mq-2" value="Read save file" style="shape=parallelogram;html=1;strokeWidth=2;perimeter=parallelogramPerimeter;whiteSpace=wrap;rounded=1;arcSize=12;size=0.23;" vertex="1" parent="1">
          <mxGeometry x="110" y="260" width="130" height="40" as="geometry" />
        </mxCell>
        <mxCell id="r6suHxJca4oAZhqO0_mq-27" style="edgeStyle=orthogonalEdgeStyle;rounded=0;orthogonalLoop=1;jettySize=auto;html=1;" edge="1" parent="1" source="r6suHxJca4oAZhqO0_mq-3" target="r6suHxJca4oAZhqO0_mq-8">
          <mxGeometry relative="1" as="geometry" />
        </mxCell>
        <mxCell id="r6suHxJca4oAZhqO0_mq-3" value="Use current date&lt;br&gt;to update&lt;br&gt;state variables" style="rounded=1;whiteSpace=wrap;html=1;absoluteArcSize=1;arcSize=14;strokeWidth=2;" vertex="1" parent="1">
          <mxGeometry x="215" y="410" width="100" height="60" as="geometry" />
        </mxCell>
        <mxCell id="r6suHxJca4oAZhqO0_mq-29" style="edgeStyle=orthogonalEdgeStyle;rounded=0;orthogonalLoop=1;jettySize=auto;html=1;" edge="1" parent="1" source="r6suHxJca4oAZhqO0_mq-4" target="r6suHxJca4oAZhqO0_mq-3">
          <mxGeometry relative="1" as="geometry">
            <Array as="points">
              <mxPoint x="175" y="440" />
            </Array>
          </mxGeometry>
        </mxCell>
        <mxCell id="r6suHxJca4oAZhqO0_mq-30" style="edgeStyle=orthogonalEdgeStyle;rounded=0;orthogonalLoop=1;jettySize=auto;html=1;" edge="1" parent="1" source="r6suHxJca4oAZhqO0_mq-4" target="r6suHxJca4oAZhqO0_mq-5">
          <mxGeometry relative="1" as="geometry" />
        </mxCell>
        <mxCell id="r6suHxJca4oAZhqO0_mq-4" value="Save file&lt;br&gt;exists?" style="strokeWidth=2;html=1;shape=mxgraph.flowchart.decision;whiteSpace=wrap;" vertex="1" parent="1">
          <mxGeometry x="135" y="320" width="80" height="70" as="geometry" />
        </mxCell>
        <mxCell id="r6suHxJca4oAZhqO0_mq-31" style="edgeStyle=orthogonalEdgeStyle;rounded=0;orthogonalLoop=1;jettySize=auto;html=1;" edge="1" parent="1" source="r6suHxJca4oAZhqO0_mq-5" target="r6suHxJca4oAZhqO0_mq-6">
          <mxGeometry relative="1" as="geometry" />
        </mxCell>
        <mxCell id="r6suHxJca4oAZhqO0_mq-5" value="Display pet adpotion&lt;br&gt;window" style="rounded=1;whiteSpace=wrap;html=1;absoluteArcSize=1;arcSize=14;strokeWidth=2;" vertex="1" parent="1">
          <mxGeometry x="245" y="322.5" width="80" height="65" as="geometry" />
        </mxCell>
        <mxCell id="r6suHxJca4oAZhqO0_mq-32" style="edgeStyle=orthogonalEdgeStyle;rounded=0;orthogonalLoop=1;jettySize=auto;html=1;" edge="1" parent="1" source="r6suHxJca4oAZhqO0_mq-6" target="r6suHxJca4oAZhqO0_mq-7">
          <mxGeometry relative="1" as="geometry" />
        </mxCell>
        <mxCell id="r6suHxJca4oAZhqO0_mq-6" value="Set state variables&lt;br&gt;based on user input" style="rounded=1;whiteSpace=wrap;html=1;absoluteArcSize=1;arcSize=14;strokeWidth=2;" vertex="1" parent="1">
          <mxGeometry x="345" y="320" width="85" height="70" as="geometry" />
        </mxCell>
        <mxCell id="r6suHxJca4oAZhqO0_mq-33" style="edgeStyle=orthogonalEdgeStyle;rounded=0;orthogonalLoop=1;jettySize=auto;html=1;" edge="1" parent="1" source="r6suHxJca4oAZhqO0_mq-7" target="r6suHxJca4oAZhqO0_mq-8">
          <mxGeometry relative="1" as="geometry">
            <Array as="points">
              <mxPoint x="505" y="515" />
            </Array>
          </mxGeometry>
        </mxCell>
        <mxCell id="r6suHxJca4oAZhqO0_mq-7" value="Close pet adoption window" style="rounded=1;whiteSpace=wrap;html=1;absoluteArcSize=1;arcSize=14;strokeWidth=2;" vertex="1" parent="1">
          <mxGeometry x="455" y="330" width="100" height="50" as="geometry" />
        </mxCell>
        <mxCell id="r6suHxJca4oAZhqO0_mq-26" style="edgeStyle=orthogonalEdgeStyle;rounded=0;orthogonalLoop=1;jettySize=auto;html=1;" edge="1" parent="1" source="r6suHxJca4oAZhqO0_mq-8" target="r6suHxJca4oAZhqO0_mq-9">
          <mxGeometry relative="1" as="geometry" />
        </mxCell>
        <mxCell id="r6suHxJca4oAZhqO0_mq-8" value="Display pet care window" style="rounded=1;whiteSpace=wrap;html=1;absoluteArcSize=1;arcSize=14;strokeWidth=2;" vertex="1" parent="1">
          <mxGeometry x="215" y="490" width="100" height="50" as="geometry" />
        </mxCell>
        <mxCell id="r6suHxJca4oAZhqO0_mq-18" style="edgeStyle=orthogonalEdgeStyle;rounded=0;orthogonalLoop=1;jettySize=auto;html=1;" edge="1" parent="1" source="r6suHxJca4oAZhqO0_mq-9" target="r6suHxJca4oAZhqO0_mq-10">
          <mxGeometry relative="1" as="geometry">
            <Array as="points">
              <mxPoint x="270" y="630" />
              <mxPoint x="100" y="630" />
            </Array>
          </mxGeometry>
        </mxCell>
        <mxCell id="r6suHxJca4oAZhqO0_mq-19" style="edgeStyle=orthogonalEdgeStyle;rounded=0;orthogonalLoop=1;jettySize=auto;html=1;" edge="1" parent="1" source="r6suHxJca4oAZhqO0_mq-9" target="r6suHxJca4oAZhqO0_mq-11">
          <mxGeometry relative="1" as="geometry">
            <Array as="points">
              <mxPoint x="270" y="630" />
              <mxPoint x="175" y="630" />
            </Array>
          </mxGeometry>
        </mxCell>
        <mxCell id="r6suHxJca4oAZhqO0_mq-20" style="edgeStyle=orthogonalEdgeStyle;rounded=0;orthogonalLoop=1;jettySize=auto;html=1;" edge="1" parent="1" source="r6suHxJca4oAZhqO0_mq-9" target="r6suHxJca4oAZhqO0_mq-12">
          <mxGeometry relative="1" as="geometry">
            <Array as="points">
              <mxPoint x="270" y="630" />
              <mxPoint x="260" y="630" />
            </Array>
          </mxGeometry>
        </mxCell>
        <mxCell id="r6suHxJca4oAZhqO0_mq-21" style="edgeStyle=orthogonalEdgeStyle;rounded=0;orthogonalLoop=1;jettySize=auto;html=1;" edge="1" parent="1" source="r6suHxJca4oAZhqO0_mq-9" target="r6suHxJca4oAZhqO0_mq-14">
          <mxGeometry relative="1" as="geometry">
            <Array as="points">
              <mxPoint x="270" y="630" />
              <mxPoint x="350" y="630" />
            </Array>
          </mxGeometry>
        </mxCell>
        <mxCell id="r6suHxJca4oAZhqO0_mq-22" style="edgeStyle=orthogonalEdgeStyle;rounded=0;orthogonalLoop=1;jettySize=auto;html=1;" edge="1" parent="1" source="r6suHxJca4oAZhqO0_mq-9" target="r6suHxJca4oAZhqO0_mq-13">
          <mxGeometry relative="1" as="geometry">
            <Array as="points">
              <mxPoint x="270" y="630" />
              <mxPoint x="433" y="630" />
            </Array>
          </mxGeometry>
        </mxCell>
        <mxCell id="r6suHxJca4oAZhqO0_mq-23" style="edgeStyle=orthogonalEdgeStyle;rounded=0;orthogonalLoop=1;jettySize=auto;html=1;" edge="1" parent="1" source="r6suHxJca4oAZhqO0_mq-9" target="r6suHxJca4oAZhqO0_mq-15">
          <mxGeometry relative="1" as="geometry">
            <Array as="points">
              <mxPoint x="270" y="630" />
              <mxPoint x="510" y="630" />
            </Array>
          </mxGeometry>
        </mxCell>
        <mxCell id="r6suHxJca4oAZhqO0_mq-24" style="edgeStyle=orthogonalEdgeStyle;rounded=0;orthogonalLoop=1;jettySize=auto;html=1;" edge="1" parent="1" source="r6suHxJca4oAZhqO0_mq-9" target="r6suHxJca4oAZhqO0_mq-16">
          <mxGeometry relative="1" as="geometry">
            <Array as="points">
              <mxPoint x="270" y="630" />
              <mxPoint x="580" y="630" />
            </Array>
          </mxGeometry>
        </mxCell>
        <mxCell id="r6suHxJca4oAZhqO0_mq-25" style="edgeStyle=orthogonalEdgeStyle;rounded=0;orthogonalLoop=1;jettySize=auto;html=1;" edge="1" parent="1" source="r6suHxJca4oAZhqO0_mq-9" target="r6suHxJca4oAZhqO0_mq-17">
          <mxGeometry relative="1" as="geometry">
            <Array as="points">
              <mxPoint x="270" y="630" />
              <mxPoint x="580" y="630" />
            </Array>
          </mxGeometry>
        </mxCell>
        <mxCell id="r6suHxJca4oAZhqO0_mq-9" value="Wait for GUI events" style="strokeWidth=2;html=1;shape=mxgraph.flowchart.terminator;whiteSpace=wrap;" vertex="1" parent="1">
          <mxGeometry x="205" y="580" width="120" height="40" as="geometry" />
        </mxCell>
        <mxCell id="r6suHxJca4oAZhqO0_mq-37" style="edgeStyle=orthogonalEdgeStyle;rounded=0;orthogonalLoop=1;jettySize=auto;html=1;" edge="1" parent="1" source="r6suHxJca4oAZhqO0_mq-10" target="r6suHxJca4oAZhqO0_mq-9">
          <mxGeometry relative="1" as="geometry">
            <Array as="points">
              <mxPoint x="100" y="750" />
              <mxPoint x="50" y="750" />
              <mxPoint x="50" y="560" />
            </Array>
          </mxGeometry>
        </mxCell>
        <mxCell id="r6suHxJca4oAZhqO0_mq-10" value="Feed pet" style="rounded=1;whiteSpace=wrap;html=1;absoluteArcSize=1;arcSize=14;strokeWidth=2;" vertex="1" parent="1">
          <mxGeometry x="70" y="675" width="60" height="40" as="geometry" />
        </mxCell>
        <mxCell id="r6suHxJca4oAZhqO0_mq-38" style="edgeStyle=orthogonalEdgeStyle;rounded=0;orthogonalLoop=1;jettySize=auto;html=1;" edge="1" parent="1" source="r6suHxJca4oAZhqO0_mq-11" target="r6suHxJca4oAZhqO0_mq-9">
          <mxGeometry relative="1" as="geometry">
            <Array as="points">
              <mxPoint x="175" y="750" />
              <mxPoint x="50" y="750" />
              <mxPoint x="50" y="560" />
            </Array>
          </mxGeometry>
        </mxCell>
        <mxCell id="r6suHxJca4oAZhqO0_mq-11" value="Play with pet" style="rounded=1;whiteSpace=wrap;html=1;absoluteArcSize=1;arcSize=14;strokeWidth=2;" vertex="1" parent="1">
          <mxGeometry x="140" y="675" width="70" height="50" as="geometry" />
        </mxCell>
        <mxCell id="r6suHxJca4oAZhqO0_mq-39" style="edgeStyle=orthogonalEdgeStyle;rounded=0;orthogonalLoop=1;jettySize=auto;html=1;" edge="1" parent="1" source="r6suHxJca4oAZhqO0_mq-12" target="r6suHxJca4oAZhqO0_mq-9">
          <mxGeometry relative="1" as="geometry">
            <Array as="points">
              <mxPoint x="260" y="750" />
              <mxPoint x="50" y="750" />
              <mxPoint x="50" y="560" />
            </Array>
          </mxGeometry>
        </mxCell>
        <mxCell id="r6suHxJca4oAZhqO0_mq-12" value="Hydrate pet" style="rounded=1;whiteSpace=wrap;html=1;absoluteArcSize=1;arcSize=14;strokeWidth=2;" vertex="1" parent="1">
          <mxGeometry x="220" y="675" width="80" height="40" as="geometry" />
        </mxCell>
        <mxCell id="r6suHxJca4oAZhqO0_mq-41" style="edgeStyle=orthogonalEdgeStyle;rounded=0;orthogonalLoop=1;jettySize=auto;html=1;" edge="1" parent="1" source="r6suHxJca4oAZhqO0_mq-13" target="r6suHxJca4oAZhqO0_mq-9">
          <mxGeometry relative="1" as="geometry">
            <Array as="points">
              <mxPoint x="433" y="750" />
              <mxPoint x="50" y="750" />
              <mxPoint x="50" y="560" />
            </Array>
          </mxGeometry>
        </mxCell>
        <mxCell id="r6suHxJca4oAZhqO0_mq-13" value="Clean pet" style="rounded=1;whiteSpace=wrap;html=1;absoluteArcSize=1;arcSize=14;strokeWidth=2;" vertex="1" parent="1">
          <mxGeometry x="397.5" y="675" width="70" height="40" as="geometry" />
        </mxCell>
        <mxCell id="r6suHxJca4oAZhqO0_mq-40" style="edgeStyle=orthogonalEdgeStyle;rounded=0;orthogonalLoop=1;jettySize=auto;html=1;" edge="1" parent="1" source="r6suHxJca4oAZhqO0_mq-14" target="r6suHxJca4oAZhqO0_mq-9">
          <mxGeometry relative="1" as="geometry">
            <Array as="points">
              <mxPoint x="350" y="750" />
              <mxPoint x="50" y="750" />
              <mxPoint x="50" y="560" />
            </Array>
          </mxGeometry>
        </mxCell>
        <mxCell id="r6suHxJca4oAZhqO0_mq-14" value="Take pet to&lt;br&gt;doctor" style="rounded=1;whiteSpace=wrap;html=1;absoluteArcSize=1;arcSize=14;strokeWidth=2;" vertex="1" parent="1">
          <mxGeometry x="310" y="675" width="80" height="40" as="geometry" />
        </mxCell>
        <mxCell id="r6suHxJca4oAZhqO0_mq-42" style="edgeStyle=orthogonalEdgeStyle;rounded=0;orthogonalLoop=1;jettySize=auto;html=1;" edge="1" parent="1" source="r6suHxJca4oAZhqO0_mq-15" target="r6suHxJca4oAZhqO0_mq-9">
          <mxGeometry relative="1" as="geometry">
            <Array as="points">
              <mxPoint x="510" y="750" />
              <mxPoint x="50" y="750" />
              <mxPoint x="50" y="560" />
              <mxPoint x="265" y="560" />
            </Array>
          </mxGeometry>
        </mxCell>
        <mxCell id="r6suHxJca4oAZhqO0_mq-15" value="Groom pet" style="rounded=1;whiteSpace=wrap;html=1;absoluteArcSize=1;arcSize=14;strokeWidth=2;" vertex="1" parent="1">
          <mxGeometry x="475" y="675" width="70" height="40" as="geometry" />
        </mxCell>
        <mxCell id="r6suHxJca4oAZhqO0_mq-16" value="Save and exit" style="rounded=1;whiteSpace=wrap;html=1;absoluteArcSize=1;arcSize=14;strokeWidth=2;" vertex="1" parent="1">
          <mxGeometry x="550" y="675" width="60" height="50" as="geometry" />
        </mxCell>
        <mxCell id="r6suHxJca4oAZhqO0_mq-36" style="edgeStyle=orthogonalEdgeStyle;rounded=0;orthogonalLoop=1;jettySize=auto;html=1;" edge="1" parent="1" source="r6suHxJca4oAZhqO0_mq-17" target="r6suHxJca4oAZhqO0_mq-5">
          <mxGeometry relative="1" as="geometry">
            <Array as="points">
              <mxPoint x="575" y="290" />
              <mxPoint x="285" y="290" />
            </Array>
          </mxGeometry>
        </mxCell>
        <mxCell id="r6suHxJca4oAZhqO0_mq-17" value="New pet" style="rounded=1;whiteSpace=wrap;html=1;absoluteArcSize=1;arcSize=14;strokeWidth=2;" vertex="1" parent="1">
          <mxGeometry x="540" y="540" width="70" height="40" as="geometry" />
        </mxCell>
      </root>
    </mxGraphModel>
  </diagram>
</mxfile>
